<svg width="350" height="350" viewBox="0 0 350 350" fill="none" xmlns="http://www.w3.org/2000/svg">
<path d="M108.255 192.213C101.552 188.924 94.6233 186.117 87.5213 183.813C77.2873 180.663 65.2123 183.547 64.9463 186.956C64.6803 190.365 66.5003 188.804 68.8873 192.5C71.2743 196.196 70.1963 204.834 73.6123 212.709C77.0283 220.584 87.2553 224.518 87.2553 224.518L108.255 192.213Z" fill="#FFC9D4" stroke="#263238" stroke-linecap="round" stroke-linejoin="round"/>
<path opacity="0.3" d="M101.43 199.829C101.43 199.829 85.6801 189.854 76.4961 186.438C67.3121 183.022 66.7871 188.013 66.7871 188.013C68.298 188.568 69.5947 189.586 70.4912 190.923C71.3878 192.26 71.8382 193.846 71.7781 195.454C71.7781 201.348 74.7251 213.556 81.8861 216.076C89.0471 218.596 101.43 199.829 101.43 199.829Z" fill="black"/>
<path d="M213.812 210.975C217.929 209.411 219.905 204.56 218.226 200.14C216.547 195.72 211.849 193.405 207.732 194.969C203.616 196.532 201.64 201.383 203.319 205.803C204.998 210.223 209.696 212.538 213.812 210.975Z" fill="#FFC9D4" stroke="#263238" stroke-linecap="round" stroke-linejoin="round"/>
<path d="M100.961 294.574L109.795 321.076C110.035 321.794 110.495 322.419 111.109 322.861C111.723 323.303 112.461 323.541 113.218 323.54H126.987C127.692 323.541 128.381 323.335 128.97 322.948C129.558 322.561 130.02 322.01 130.298 321.363L136.458 307.069" fill="#FFC9D4"/>
<mask id="mask0_146_413" style="mask-type:luminance" maskUnits="userSpaceOnUse" x="100" y="294" width="37" height="30">
<path d="M100.961 294.574L109.795 321.076C110.035 321.794 110.495 322.419 111.109 322.861C111.723 323.303 112.461 323.541 113.218 323.54H126.987C127.692 323.541 128.381 323.335 128.97 322.948C129.558 322.561 130.02 322.01 130.298 321.363L136.458 307.069" fill="white"/>
</mask>
<g mask="url(#mask0_146_413)">
<path opacity="0.3" d="M105.393 294.574L112.701 321.076C112.839 321.741 113.192 322.343 113.705 322.788C114.219 323.233 114.864 323.497 115.543 323.54H126.96C127.587 323.508 128.188 323.281 128.68 322.89C129.172 322.5 129.53 321.966 129.704 321.363L134.814 307.069" fill="black"/>
</g>
<path d="M100.961 294.574L109.795 321.076C110.035 321.794 110.495 322.419 111.109 322.861C111.723 323.303 112.461 323.541 113.218 323.54H126.987C127.692 323.541 128.381 323.335 128.97 322.948C129.558 322.561 130.02 322.01 130.298 321.363L136.458 307.069" stroke="#263238" stroke-linecap="round" stroke-linejoin="round"/>
<path d="M167.405 294.574L158.578 321.076C158.339 321.794 157.879 322.419 157.265 322.861C156.65 323.303 155.912 323.541 155.155 323.54H141.4C140.696 323.541 140.007 323.335 139.418 322.948C138.829 322.561 138.367 322.01 138.089 321.363L131.929 307.069" fill="#263238"/>
<path d="M167.405 294.574L158.578 321.076C158.339 321.794 157.879 322.419 157.265 322.861C156.65 323.303 155.912 323.541 155.155 323.54H141.4C140.696 323.541 140.007 323.335 139.418 322.948C138.829 322.561 138.367 322.01 138.089 321.363L131.929 307.069" stroke="#263238" stroke-linecap="round" stroke-linejoin="round"/>
<path d="M196.658 294.574L187.824 321.076C187.585 321.794 187.125 322.419 186.511 322.861C185.896 323.303 185.158 323.541 184.401 323.54H170.632C169.928 323.541 169.239 323.335 168.65 322.948C168.061 322.561 167.599 322.01 167.321 321.363L161.161 307.069" fill="#FFC9D4"/>
<mask id="mask1_146_413" style="mask-type:luminance" maskUnits="userSpaceOnUse" x="161" y="294" width="36" height="30">
<path d="M196.658 294.574L187.824 321.076C187.585 321.794 187.125 322.419 186.511 322.861C185.896 323.303 185.158 323.541 184.401 323.54H170.632C169.928 323.541 169.239 323.335 168.65 322.948C168.061 322.561 167.599 322.01 167.321 321.363L161.161 307.069" fill="white"/>
</mask>
<g mask="url(#mask1_146_413)">
<path opacity="0.3" d="M190.4 294.574L184.359 321.076C184.023 322.546 183.085 323.54 182.021 323.54H172.606C171.626 323.54 170.737 322.686 170.345 321.363L164.493 307.363" fill="black"/>
</g>
<path d="M196.658 294.574L187.824 321.076C187.585 321.794 187.125 322.419 186.511 322.861C185.896 323.303 185.158 323.541 184.401 323.54H170.632C169.928 323.541 169.239 323.335 168.65 322.948C168.061 322.561 167.599 322.01 167.321 321.363L161.161 307.069" stroke="#263238" stroke-linecap="round" stroke-linejoin="round"/>
<path d="M149.45 312.011C191.269 312.011 225.169 281.266 225.169 243.341C225.169 205.416 191.269 174.671 149.45 174.671C107.632 174.671 73.7314 205.416 73.7314 243.341C73.7314 281.266 107.632 312.011 149.45 312.011Z" fill="#FFC9D4"/>
<mask id="mask2_146_413" style="mask-type:luminance" maskUnits="userSpaceOnUse" x="73" y="174" width="153" height="139">
<path d="M149.45 312.011C191.269 312.011 225.169 281.266 225.169 243.341C225.169 205.416 191.269 174.671 149.45 174.671C107.632 174.671 73.7314 205.416 73.7314 243.341C73.7314 281.266 107.632 312.011 149.45 312.011Z" fill="white"/>
</mask>
<g mask="url(#mask2_146_413)">
<path opacity="0.3" d="M201.6 196.42C206.041 205.226 208.354 214.95 208.355 224.812C208.355 262.738 174.454 293.482 132.636 293.482C117.074 293.561 101.821 289.141 88.7114 280.756C101.913 298.473 124.264 310.156 149.611 310.156C190.211 310.156 223.111 280.329 223.111 243.53C223.069 225.113 214.851 208.474 201.6 196.42Z" fill="black"/>
</g>
<path d="M149.45 312.011C191.269 312.011 225.169 281.266 225.169 243.341C225.169 205.416 191.269 174.671 149.45 174.671C107.632 174.671 73.7314 205.416 73.7314 243.341C73.7314 281.266 107.632 312.011 149.45 312.011Z" stroke="#263238" stroke-linecap="round" stroke-linejoin="round"/>
<path d="M218.799 249.501C217.147 263.333 210.77 275.884 201.166 285.796" stroke="#FFC9D4" stroke-width="2" stroke-linecap="round" stroke-linejoin="round"/>
<path d="M217.546 228.2C218.664 232.833 219.227 237.581 219.226 242.347" stroke="#FFC9D4" stroke-width="2" stroke-linecap="round" stroke-linejoin="round"/>
<path d="M130.676 178.771C136.259 177.435 141.974 176.764 147.708 176.771C151.379 176.77 155.045 177.045 158.676 177.592" stroke="black" stroke-width="2" stroke-linecap="round" stroke-linejoin="round"/>
<path d="M164.304 226.891C164.304 226.891 171.654 221.9 171.92 212.716C172.186 203.532 160.104 190.148 150.395 184.632C140.686 179.116 133.595 180.173 133.336 184.107C133.077 188.041 129.661 192.507 128.352 200.116C127.043 207.725 126.511 219.016 136.752 222.691" fill="#FFC9D4"/>
<path d="M164.304 226.891C164.304 226.891 171.654 221.9 171.92 212.716C172.186 203.532 160.104 190.148 150.395 184.632C140.686 179.116 133.595 180.173 133.336 184.107C133.077 188.041 129.661 192.507 128.352 200.116C127.043 207.725 126.511 219.016 136.752 222.691" stroke="#263238" stroke-linecap="round" stroke-linejoin="round"/>
<path opacity="0.3" d="M148.491 223.944L149.996 224.168C156.45 225.099 158.718 220.885 158.529 214.557C158.27 205.632 146.461 186.732 141.47 184.107C136.479 181.482 134.911 185.157 134.911 185.157C134.911 185.157 135.611 185.626 133.154 193.781C132.02 197.547 127.799 210.679 131.978 216.503C135.674 221.648 142.541 223.055 148.491 223.944Z" fill="black"/>
<path opacity="0.3" d="M169.4 214.9H169.302C169.211 214.888 169.122 214.858 169.042 214.812C168.962 214.765 168.892 214.704 168.836 214.63C168.78 214.556 168.74 214.473 168.716 214.383C168.693 214.294 168.687 214.201 168.7 214.109C168.776 213.571 168.82 213.029 168.833 212.485C168.973 207.585 164.976 200.55 158.403 194.061C158.337 193.996 158.285 193.919 158.249 193.834C158.213 193.749 158.195 193.658 158.194 193.566C158.193 193.473 158.211 193.382 158.245 193.296C158.28 193.211 158.331 193.133 158.396 193.067C158.461 193.001 158.538 192.949 158.623 192.913C158.708 192.877 158.799 192.858 158.892 192.858C158.984 192.857 159.076 192.875 159.161 192.909C159.247 192.944 159.325 192.995 159.39 193.06C166.334 199.92 170.387 207.193 170.233 212.52C170.218 213.115 170.171 213.708 170.093 214.298C170.07 214.465 169.987 214.618 169.859 214.729C169.732 214.839 169.569 214.9 169.4 214.9Z" fill="black"/>
<path opacity="0.3" d="M165.634 223.342C165.502 223.342 165.372 223.305 165.259 223.235C165.147 223.164 165.057 223.064 165 222.944C164.943 222.825 164.921 222.691 164.936 222.56C164.952 222.428 165.005 222.304 165.088 222.201C166.242 220.788 167.163 219.2 167.818 217.497C167.884 217.323 168.016 217.183 168.185 217.107C168.355 217.031 168.547 217.025 168.721 217.091C168.895 217.157 169.035 217.289 169.111 217.458C169.187 217.628 169.193 217.82 169.127 217.994C168.42 219.837 167.423 221.555 166.173 223.083C166.108 223.163 166.026 223.228 165.933 223.273C165.839 223.318 165.737 223.341 165.634 223.342Z" fill="black"/>
<path opacity="0.3" d="M114.659 256.628C116.729 248.331 109.513 239.385 98.5412 236.648C87.5696 233.91 76.997 238.417 74.9268 246.714C72.8565 255.011 80.0725 263.957 91.0442 266.694C102.016 269.432 112.588 264.925 114.659 256.628Z" fill="black"/>
<path d="M113.673 255.121C115.744 246.824 108.528 237.878 97.5559 235.141C86.5842 232.403 76.0117 236.91 73.9414 245.207C71.8712 253.505 79.0872 262.45 90.0588 265.188C101.03 267.925 111.603 263.418 113.673 255.121Z" fill="#FFC9D4" stroke="#263238" stroke-linecap="round" stroke-linejoin="round"/>
<path d="M87.626 247.66C87.752 249.536 87.031 251.118 86.023 251.16C85.015 251.202 84.084 249.76 83.923 247.884C83.762 246.008 84.518 244.419 85.533 244.384C86.548 244.349 87.5 245.777 87.626 247.66Z" stroke="#263238" stroke-linecap="round" stroke-linejoin="round"/>
<path d="M101.5 251.139C101.626 253.022 100.905 254.597 99.8971 254.639C98.8891 254.681 97.9581 253.239 97.7971 251.356C97.6361 249.473 98.3921 247.898 99.4071 247.856C100.422 247.814 101.353 249.256 101.5 251.139Z" stroke="#263238" stroke-linecap="round" stroke-linejoin="round"/>
<path d="M124.397 256.004C124.25 257.352 123.935 258.676 123.459 259.945C119.441 270.802 104.895 275.499 90.5244 270.823" stroke="#263238" stroke-width="3" stroke-linecap="round" stroke-linejoin="round"/>
<path d="M122.052 254.975H126.511" stroke="#263238" stroke-width="3" stroke-linecap="round" stroke-linejoin="round"/>
<path d="M93.646 225.911C93.156 227.948 91.903 229.411 90.846 229.145C89.789 228.879 89.3271 227.045 89.8241 224.987C90.3211 222.929 91.5671 221.487 92.6241 221.746C93.6811 222.005 94.143 223.867 93.646 225.911Z" fill="#263238" stroke="#263238" stroke-linecap="round" stroke-linejoin="round"/>
<path d="M106.556 228.725C107.048 226.681 106.592 224.817 105.535 224.562C104.479 224.308 103.224 225.759 102.731 227.804C102.238 229.848 102.695 231.712 103.751 231.966C104.807 232.221 106.063 230.77 106.556 228.725Z" fill="#263238" stroke="#263238" stroke-linecap="round" stroke-linejoin="round"/>
<path d="M125.832 303.1L133.532 321.37C133.808 322.023 134.271 322.581 134.862 322.973C135.454 323.365 136.148 323.575 136.857 323.575H150.857C151.56 323.574 152.248 323.368 152.836 322.983C153.424 322.597 153.887 322.049 154.168 321.405L162.568 301.994H162.204" fill="#FFC9D4"/>
<mask id="mask3_146_413" style="mask-type:luminance" maskUnits="userSpaceOnUse" x="125" y="301" width="38" height="23">
<path d="M125.832 303.1L133.532 321.37C133.808 322.023 134.271 322.581 134.862 322.973C135.454 323.365 136.148 323.575 136.857 323.575H150.857C151.56 323.574 152.248 323.368 152.836 322.983C153.424 322.597 153.887 322.049 154.168 321.405L162.568 301.994H162.204" fill="white"/>
</mask>
<g mask="url(#mask3_146_413)">
<path opacity="0.3" d="M142.1 300.769C137.662 300.769 132.496 301.35 128.317 300.384L135.513 321.335C135.684 321.944 136.042 322.483 136.535 322.879C137.028 323.274 137.633 323.505 138.264 323.54H149.8C150.424 323.505 151.021 323.278 151.51 322.889C151.999 322.501 152.355 321.97 152.53 321.37L159.495 299.999L156.695 300.384C147.812 301.35 148.043 300.769 142.1 300.769Z" fill="black"/>
</g>
<path d="M125.832 303.1L133.532 321.37C133.808 322.023 134.271 322.581 134.862 322.973C135.454 323.365 136.148 323.575 136.857 323.575H150.857C151.56 323.574 152.248 323.368 152.836 322.983C153.424 322.597 153.887 322.049 154.168 321.405L162.568 301.994H162.204" stroke="#263238" stroke-linecap="round" stroke-linejoin="round"/>
<path d="M132.881 167.258L133.896 171.08L149.688 167.258L164.465 128.541L154.784 125.23L132.881 167.258Z" fill="#D9D9D9" stroke="#263238" stroke-linecap="round" stroke-linejoin="round"/>
<path d="M137.718 115.808L159.621 123.963L148.925 172.354L123.2 164.458L137.718 115.808Z" fill="white" stroke="#263238" stroke-linecap="round" stroke-linejoin="round"/>
<path d="M124.061 161.567L146.888 168.28L156.821 125.23L136.822 118.804L124.061 161.567Z" fill="#15C770" stroke="#263238" stroke-linecap="round" stroke-linejoin="round"/>
<path d="M136.731 129.451C135.738 129.188 134.7 129.14 133.686 129.311L127.722 149.296C128.585 150.137 129.647 150.746 130.809 151.067C135.485 152.355 140.609 148.554 142.247 142.583C143.885 136.612 141.4 130.732 136.731 129.451Z" fill="white" stroke="#263238" stroke-linecap="round" stroke-linejoin="round"/>
<path d="M135.884 132.762C135.854 132.748 135.829 132.725 135.814 132.696C135.799 132.667 135.794 132.633 135.8 132.601L136.066 131.565C136.082 131.521 136.088 131.475 136.084 131.428C136.079 131.382 136.065 131.337 136.04 131.297C136.016 131.258 135.983 131.224 135.944 131.199C135.905 131.174 135.86 131.158 135.814 131.152L134.701 130.886C134.658 130.868 134.61 130.861 134.564 130.865C134.517 130.869 134.471 130.883 134.431 130.908C134.391 130.932 134.357 130.966 134.332 131.006C134.307 131.046 134.292 131.091 134.288 131.138L134.071 132.209C134.063 132.241 134.044 132.269 134.017 132.288C133.99 132.308 133.957 132.317 133.924 132.314C133.545 132.275 133.162 132.275 132.783 132.314L130.746 139.153C132.335 140.805 134.813 141.631 134.484 143.017C134.295 143.801 133.581 144.417 132.328 144.137C132.066 144.102 131.815 144.011 131.591 143.87C131.367 143.729 131.177 143.542 131.032 143.321C130.887 143.099 130.792 142.85 130.752 142.588C130.712 142.327 130.729 142.06 130.802 141.806L130.865 141.526C130.9 141.372 130.809 141.246 130.592 141.197L130.165 141.092L128.954 145.138C129.44 145.58 130.009 145.923 130.627 146.146C130.659 146.16 130.684 146.184 130.699 146.215C130.715 146.246 130.719 146.281 130.711 146.314L130.459 147.203C130.44 147.246 130.431 147.294 130.434 147.341C130.437 147.389 130.452 147.435 130.477 147.476C130.502 147.516 130.536 147.55 130.577 147.575C130.617 147.599 130.664 147.613 130.711 147.616L131.866 147.896C131.907 147.918 131.952 147.93 131.998 147.931C132.044 147.932 132.089 147.923 132.131 147.904C132.173 147.886 132.21 147.857 132.239 147.822C132.269 147.786 132.289 147.745 132.3 147.7L132.489 146.818C132.5 146.785 132.52 146.757 132.548 146.737C132.575 146.717 132.609 146.706 132.643 146.706C135.107 146.965 136.78 145.754 137.298 143.598C137.704 141.876 137.123 140.413 135.324 139.034C133.679 137.788 131.943 137.172 132.244 135.898C132.454 135.016 133.259 134.61 134.344 134.869C134.613 134.912 134.869 135.013 135.094 135.165C135.32 135.316 135.511 135.515 135.652 135.747C135.794 135.979 135.884 136.239 135.915 136.51C135.947 136.78 135.919 137.053 135.835 137.312L135.786 137.508C135.786 137.627 135.856 137.732 136.073 137.788L138.124 138.278C138.168 138.294 138.215 138.3 138.261 138.296C138.307 138.291 138.352 138.276 138.392 138.252C138.431 138.228 138.465 138.195 138.49 138.156C138.516 138.117 138.532 138.072 138.537 138.026L138.691 137.375C139.16 135.324 138.173 133.581 135.884 132.762Z" fill="#263238"/>
</svg>
