<svg width="124" height="112" viewBox="0 0 124 112" fill="none" xmlns="http://www.w3.org/2000/svg">
<path d="M13.6952 88.3738C13.6952 88.3738 13.7811 91.1224 12.9219 92.8402L13.6952 88.3738Z" fill="white"/>
<path d="M24.8661 86.2757C23.835 86.9629 22.8898 87.3064 21.9446 87.5641C20.8276 87.7359 19.7105 87.7359 18.5935 87.5641C18.5935 86.6193 18.5075 85.5027 18.3357 84.5578C17.992 82.5823 16.875 79.8337 15.4142 78.4594C14.3831 77.6864 12.4927 76.7416 10.5164 77.8582C8.88382 78.7171 8.28233 80.0914 8.36826 82.6682C8.79789 86.018 10.4305 87.4782 12.149 89.3679C12.4068 89.7114 12.7505 89.9691 13.0942 90.1409C12.9223 90.9998 12.2349 91.7729 11.5475 92.3741C8.28233 94.865 4.2438 92.8895 1.23639 90.9998C1.06453 90.9139 0.978608 90.9139 0.892682 91.0857C0.806755 91.1716 0.892682 91.2575 0.892682 91.3434C1.9238 93.4049 2.35343 94.3497 4.58751 95.5522C12.4927 100.105 17.3794 91.8461 17.6372 91.4166C22.3632 93.8216 25.1239 92.6318 26.2409 91.687L24.8661 86.2757ZM13.6957 86.1039C12.9223 85.8462 12.2349 85.4168 11.6335 84.9014C10.1727 82.84 11.1179 81.8093 11.8053 81.7234C13.0942 81.208 13.9535 84.9873 13.6957 86.1039Z" fill="white"/>
<path fill-rule="evenodd" clip-rule="evenodd" d="M10.4151 77.6735C12.5038 76.4953 14.4901 77.5042 15.5399 78.2912L15.5493 78.2982L15.5578 78.3063C16.3159 79.0195 16.9741 80.0774 17.4847 81.1959C17.9961 82.3163 18.367 83.5142 18.5423 84.521C18.7057 85.4196 18.7921 86.4677 18.8023 87.382C19.835 87.5237 20.8675 87.5157 21.9003 87.358C22.8279 87.1044 23.7467 86.7685 24.7489 86.1007L24.9962 85.9358L26.4766 91.7627L26.3762 91.8477C25.7988 92.3361 24.8398 92.9827 23.4142 93.1943C22.0221 93.4008 20.2072 93.1893 17.8949 92.0461C17.5161 92.6192 16.2251 94.4055 14.1842 95.7081C13.018 96.4524 11.6015 97.0423 9.96748 97.1525C8.3322 97.2629 6.49288 96.892 4.48461 95.7361C3.35261 95.1265 2.6621 94.5736 2.12417 93.9014C1.6203 93.2718 1.25683 92.5442 0.785735 91.6012C0.758845 91.5474 0.731604 91.4928 0.703966 91.4376L0.681741 91.3931V91.3504C0.681741 91.3504 0.68047 91.3458 0.679241 91.3418C0.679241 91.3418 0.678258 91.3388 0.677269 91.3359C0.672657 91.322 0.661655 91.2891 0.655804 91.2657C0.646805 91.2297 0.637214 91.1748 0.649097 91.1114C0.659343 91.0568 0.683213 91.0078 0.717583 90.9656C0.76945 90.8703 0.850934 90.7678 0.990505 90.7399C1.12232 90.7135 1.24664 90.7701 1.32989 90.8117L1.33907 90.8163L1.34776 90.8217C2.84715 91.7639 4.58428 92.7144 6.34256 93.1249C8.09201 93.5333 9.84621 93.4042 11.4138 92.2112C12.0504 91.6535 12.6486 90.977 12.8513 90.25C12.5366 90.0707 12.2284 89.8223 11.9863 89.5023C11.8251 89.3252 11.6642 89.1513 11.5045 88.9788C9.97231 87.3235 8.55648 85.794 8.15903 82.695L8.15777 82.6852L8.15744 82.6753C8.114 81.3728 8.2428 80.3484 8.6051 79.5336C8.97039 78.712 9.56493 78.1214 10.4151 77.6735ZM15.278 78.6208C14.2643 77.8636 12.4765 76.9921 10.6193 78.0414L10.6166 78.0429L10.6138 78.0444C9.8329 78.4553 9.31129 78.9809 8.98957 79.7045C8.6653 80.4338 8.53615 81.382 8.57764 82.6513C8.95912 85.606 10.2879 87.043 11.815 88.6945C11.9761 88.8687 12.1394 89.0453 12.3041 89.2264L12.3108 89.2337L12.3167 89.2417C12.5515 89.5545 12.8676 89.7928 13.1877 89.9528L13.3315 90.0246L13.2999 90.1822C13.1135 91.1141 12.3781 91.9268 11.6855 92.5325L11.6802 92.5372L11.6746 92.5414C9.97838 93.8354 8.0828 93.9632 6.24691 93.5346C4.42144 93.1085 2.63909 92.1295 1.13297 91.1837C1.11491 91.1749 1.1004 91.1684 1.08875 91.1638C1.08614 91.1685 1.08331 91.1738 1.08028 91.1799L1.07346 91.1935C1.07581 91.2006 1.07859 91.2091 1.08084 91.2163C1.08584 91.2323 1.09273 91.2556 1.09739 91.2836C1.11596 91.3207 1.13433 91.3575 1.1525 91.3938C1.63325 92.3558 1.97765 93.0449 2.45268 93.6385C2.94544 94.2542 3.58614 94.7746 4.68666 95.367L4.68932 95.3684L4.69194 95.3699C6.63524 96.489 8.39318 96.837 9.93914 96.7327C11.4871 96.6283 12.8363 96.0693 13.9579 95.3534C16.2063 93.9184 17.5178 91.8669 17.6392 91.6647L17.7402 91.4965L17.915 91.5854C20.247 92.7722 22.0289 92.9744 23.3524 92.7781C24.5971 92.5934 25.4568 92.0531 26.0037 91.6099L24.7337 86.6111C23.7735 87.2094 22.8824 87.5264 21.9994 87.7671L21.9878 87.7703L21.976 87.7721C20.8378 87.9471 19.6992 87.9471 18.5609 87.7721L18.3825 87.7447V87.5642C18.3825 86.63 18.2974 85.5261 18.1282 84.5955L18.1279 84.594C17.9594 83.6254 17.5999 82.4616 17.1019 81.3706C16.6049 80.2818 15.9772 79.2819 15.278 78.6208ZM1.06356 91.1616V91.1616ZM12.1912 81.9143C12.0937 81.8768 11.9941 81.8743 11.8829 81.9188L11.8577 81.9288L11.8308 81.9322C11.5711 81.9646 11.2339 82.1835 11.1166 82.6256C11.0002 83.0643 11.0917 83.7656 11.7896 84.7586C12.3067 85.1986 12.8846 85.5696 13.5232 85.8183C13.5405 85.579 13.5271 85.2622 13.4811 84.9027C13.4183 84.4122 13.2977 83.8648 13.1306 83.3689C12.9621 82.8689 12.7524 82.4398 12.5207 82.1707C12.4056 82.0371 12.2944 81.9539 12.1912 81.9143ZM13.8984 84.8492C13.9637 85.3589 13.9732 85.8347 13.9001 86.1513L13.8481 86.3767L13.6286 86.3036C12.8242 86.0355 12.1135 85.5903 11.496 85.0612L11.4763 85.0443L11.4612 85.0231C10.7121 83.9659 10.5479 83.128 10.7099 82.5176C10.8685 81.9202 11.3312 81.5823 11.752 81.5184C11.9543 81.4441 12.1547 81.4495 12.342 81.5215C12.5315 81.5943 12.6969 81.7305 12.8395 81.8961C13.1234 82.2257 13.3541 82.7146 13.5293 83.2345C13.7059 83.7586 13.8324 84.3332 13.8984 84.8492Z" fill="#106b40"/>
<path fill-rule="evenodd" clip-rule="evenodd" d="M18.3822 87.7C18.3822 87.7001 18.3822 87.7002 18.5924 87.6914C18.8026 87.6827 18.8026 87.6828 18.8026 87.6829L18.8026 87.6832L18.8026 87.6842L18.8028 87.6872L18.8031 87.6976C18.8033 87.7065 18.8036 87.7193 18.8038 87.7358C18.8042 87.7689 18.8043 87.8168 18.8031 87.8783C18.8006 88.0012 18.793 88.1785 18.7723 88.3995C18.731 88.8412 18.6376 89.4588 18.429 90.1666C18.0117 91.5827 17.1321 93.3637 15.2853 94.8142L15.0254 94.4833C16.7875 93.0994 17.6264 91.4017 18.0254 90.0477C18.225 89.3705 18.3141 88.7802 18.3534 88.3603C18.373 88.1505 18.3801 87.9835 18.3824 87.8699C18.3835 87.8131 18.3834 87.7697 18.3831 87.741C18.3829 87.7266 18.3827 87.7159 18.3825 87.7091L18.3822 87.7017L18.3822 87.7002L18.3822 87.7Z" fill="#106b40"/>
<path fill-rule="evenodd" clip-rule="evenodd" d="M13.4846 86.0247L13.6949 86.0182C13.9052 86.0116 13.9052 86.0117 13.9052 86.0117L13.9052 86.0142L13.9054 86.0207L13.906 86.0452C13.9064 86.0665 13.9069 86.0977 13.9073 86.1379C13.908 86.2181 13.908 86.3341 13.9052 86.4785C13.8998 86.7671 13.8835 87.1698 13.8399 87.6272C13.7533 88.5361 13.5571 89.6843 13.1097 90.5788L12.7334 90.3905C13.1452 89.5672 13.3358 88.4821 13.421 87.5873C13.4634 87.1428 13.4793 86.751 13.4845 86.4705C13.4872 86.3304 13.4872 86.2182 13.4865 86.1415C13.4862 86.1031 13.4857 86.0735 13.4853 86.0538L13.4848 86.0316L13.4847 86.0262L13.4846 86.0247Z" fill="#106b40"/>
<path d="M77.71 9.09459C77.71 9.09459 91.63 3.68332 101.082 1.79367C101.855 1.62189 102.543 2.22314 102.543 2.99618C102.8 9.86762 94.8925 19.2735 90.5962 18.2428" fill="#15c770"/>
<path d="M78.913 102.202L63.1885 104.092C63.1885 104.092 31.5004 102.493 25.6574 94.1616C19.8145 85.8299 0.720117 41.8195 37.6684 14.6773C74.7026 -12.465 92.9189 17.8553 95.0671 22.4076C97.2152 26.96 97.9886 41.0464 97.9886 41.0464L103.488 73.514L115.689 79.6983C119.47 80.6432 121.962 84.3366 121.532 88.2017L120.931 93.6989C120.501 97.65 117.236 100.742 113.198 100.828L78.913 102.202Z" fill="white"/>
<path fill-rule="evenodd" clip-rule="evenodd" d="M78.8582 101.518L113.183 100.142C116.868 100.064 119.855 97.2415 120.249 93.6247L120.85 88.1271C121.243 84.5935 118.961 81.2233 115.523 80.3641L115.448 80.3454L102.869 73.9698L97.3055 41.1228L97.3033 41.0841L97.9886 41.0464L103.488 73.514L115.689 79.6983C119.47 80.6432 121.962 84.3366 121.532 88.2017L120.931 93.6989C120.501 97.65 117.236 100.742 113.198 100.828L78.913 102.202L63.1885 104.092C63.1885 104.092 31.5004 102.493 25.6574 94.1616C19.8145 85.8299 0.720117 41.8195 37.6684 14.6773C74.7026 -12.465 92.9189 17.8553 95.0671 22.4076C97.2152 26.96 97.9886 41.0464 97.9886 41.0464L97.3033 41.0841L97.3032 41.0819L97.3011 41.045L97.2943 40.9278C97.2882 40.8246 97.2789 40.6722 97.2663 40.4763C97.2411 40.0846 97.2027 39.5193 97.1499 38.8265C97.0442 37.4403 96.8812 35.5459 96.6514 33.5112C96.4215 31.4749 96.1258 29.3063 95.7557 27.3692C95.3827 25.4168 94.9442 23.7553 94.4464 22.7005C93.4057 20.4951 88.4019 11.93 79.1415 7.27003C74.5278 4.94833 68.8492 3.5908 62.0471 4.47489C55.2385 5.35983 47.2629 8.49634 38.0741 15.2308C19.828 28.6347 15.4261 46.1746 16.3013 61.4341C17.1791 76.7368 23.3671 89.7005 26.2193 93.7675C27.5457 95.6588 30.4341 97.2634 34.2125 98.58C37.9524 99.8832 42.4181 100.857 46.7268 101.574C51.0312 102.291 55.1571 102.749 58.2084 103.029C59.7335 103.168 60.9889 103.263 61.8622 103.322C62.2989 103.352 62.64 103.373 62.8715 103.387C62.9872 103.394 63.0756 103.399 63.1348 103.402L63.1655 103.404L78.8582 101.518Z" fill="#106b40"/>
<path d="M68.0863 20.6039C66.4537 17.9412 62.9307 16.5669 59.9233 17.8553C56.6581 19.2296 55.1115 22.8371 56.0566 26.187C56.3144 27.0459 56.5722 27.8189 56.4863 28.6779C56.4003 29.6227 56.2285 30.5675 56.3144 31.5123C56.5722 33.0584 57.4315 34.5186 58.7203 35.5493C61.7278 37.9543 65.8522 37.439 68.9456 35.4634C70.5782 34.4327 72.0389 32.9725 72.4685 30.997C72.9841 28.9355 72.2967 26.7023 71.0937 24.9845C69.9767 23.4384 69.3752 21.8064 68.0863 20.6039Z" fill="#15c770"/>
<path d="M66.196 34.3469C67.3131 34.3469 68.1723 33.2303 68.1723 31.9419C68.1723 30.6535 67.3131 29.5369 66.196 29.5369C65.079 29.5369 64.2197 30.6535 64.2197 31.9419C64.2197 33.2303 65.079 34.3469 66.196 34.3469Z" fill="#106b40"/>
<path fill-rule="evenodd" clip-rule="evenodd" d="M64.1357 31.9432C64.1357 30.6263 65.0166 29.4541 66.1961 29.4541C67.3757 29.4541 68.2565 30.6263 68.2565 31.9432C68.2565 33.2601 67.3757 34.4323 66.1961 34.4323C65.0166 34.4323 64.1357 33.2601 64.1357 31.9432ZM66.1961 29.6223C65.1416 29.6223 64.3039 30.6833 64.3039 31.9432C64.3039 33.2031 65.1416 34.2641 66.1961 34.2641C67.2506 34.2641 68.0884 33.2031 68.0884 31.9432C68.0884 30.6833 67.2506 29.6223 66.1961 29.6223Z" fill="#106b40"/>
<path d="M78.655 34.3469C79.7721 34.3469 80.6313 33.2303 80.6313 31.9419C80.6313 30.6535 79.7721 29.5369 78.655 29.5369C77.538 29.5369 76.6787 30.6535 76.6787 31.9419C76.6787 33.2303 77.6239 34.3469 78.655 34.3469Z" fill="#106b40"/>
<path fill-rule="evenodd" clip-rule="evenodd" d="M76.5947 31.9432C76.5947 30.6263 77.4755 29.4541 78.6551 29.4541C79.8347 29.4541 80.7155 30.6263 80.7155 31.9432C80.7155 33.2601 79.8347 34.4323 78.6551 34.4323C78.1085 34.4323 77.5924 34.1368 77.2156 33.6825C76.8382 33.2277 76.5947 32.6076 76.5947 31.9432ZM78.6551 29.6223C77.6006 29.6223 76.7629 30.6833 76.7629 31.9432C76.7629 32.5672 76.992 33.1496 77.345 33.5752C77.6985 34.0013 78.1706 34.2641 78.6551 34.2641C79.7096 34.2641 80.5473 33.2031 80.5473 31.9432C80.5473 30.6833 79.7096 29.6223 78.6551 29.6223Z" fill="#106b40"/>
<path d="M58.8926 46.1141C58.8926 45.3411 59.1504 44.4821 59.4941 43.795C60.8689 41.4759 64.4778 36.6659 70.7504 36.4941C79.0852 36.2364 85.3637 38.4874 84.8423 48.1755C84.6866 50.6665 84.5845 53.1574 62.8452 50.6665C60.6111 50.4088 58.8926 48.4332 58.8926 46.1141Z" fill="white"/>
<path fill-rule="evenodd" clip-rule="evenodd" d="M80.9231 38.8883C78.4706 37.2108 74.9108 36.7086 70.7604 36.837L70.7592 36.837C64.682 37.0034 61.1602 41.6602 59.7949 43.9592C59.4706 44.6112 59.2351 45.4122 59.2351 46.114C59.2351 48.2666 60.8306 50.0886 62.8839 50.3255C73.7601 51.5716 79.1642 51.5624 81.8616 50.9543C83.2017 50.6522 83.8107 50.2156 84.1125 49.7726C84.4218 49.3185 84.4592 48.7944 84.4991 48.1556C84.7551 43.3941 83.3425 40.543 80.9231 38.8883ZM81.3106 38.3218C83.9836 40.15 85.4494 43.2681 85.1843 48.1939L85.1842 48.1968C85.1831 48.213 85.1821 48.2292 85.1811 48.2455C85.1442 48.8411 85.1008 49.5406 84.6797 50.1589C84.2391 50.8057 83.4348 51.3032 82.0125 51.6238C79.1851 52.2612 73.6684 52.2519 62.8055 51.0072L62.8053 51.0072C60.3904 50.7287 58.5488 48.5996 58.5488 46.114C58.5488 45.2736 58.8262 44.3617 59.1866 43.6414C59.1902 43.6341 59.1941 43.6269 59.1983 43.6199C60.5872 41.277 64.2815 36.3282 70.7398 36.151C74.924 36.0217 78.6706 36.5162 81.3106 38.3218Z" fill="#106b40"/>
<path d="M68.6023 47.4891C69.4616 47.4891 70.2349 45.8571 70.2349 43.7957C70.2349 41.7343 69.5475 40.1023 68.6023 40.1023C67.7431 40.1023 66.9697 41.7343 66.9697 43.7957C66.9697 45.8571 67.6571 47.4891 68.6023 47.4891Z" fill="#106b40"/>
<path fill-rule="evenodd" clip-rule="evenodd" d="M67.9272 40.3288C68.1307 40.1339 68.3596 40.0186 68.6021 40.0186C69.1274 40.0186 69.5559 40.4698 69.8488 41.1419C70.1445 41.8208 70.3175 42.7561 70.3175 43.7947C70.3175 44.8348 70.1226 45.7702 69.8161 46.4486C69.6629 46.7876 69.4803 47.066 69.277 47.2607C69.0736 47.4556 68.8447 47.5709 68.6021 47.5709C68.0768 47.5709 67.6483 47.1197 67.3555 46.4476C67.0597 45.7687 66.8867 44.8334 66.8867 43.7947C66.8867 42.7547 67.0816 41.8193 67.3881 41.1409C67.5413 40.8019 67.724 40.5235 67.9272 40.3288ZM67.539 41.2091C67.244 41.862 67.0523 42.7734 67.0523 43.7947C67.0523 44.8175 67.223 45.7289 67.5073 46.3814C67.7944 47.0406 68.1822 47.4054 68.6021 47.4054C68.7892 47.4054 68.9792 47.3167 69.1624 47.1412C69.3458 46.9655 69.5176 46.707 69.6652 46.3804C69.9602 45.7275 70.1519 44.8161 70.1519 43.7947C70.1519 42.772 69.9812 41.8606 69.697 41.2081C69.4098 40.5489 69.022 40.1841 68.6021 40.1841C68.415 40.1841 68.225 40.2728 68.0418 40.4483C67.8584 40.624 67.6866 40.8825 67.539 41.2091Z" fill="#106b40"/>
<path d="M77.366 47.4891C78.2253 47.4891 78.9986 45.8571 78.9986 43.7957C78.9986 41.7343 78.3112 40.1023 77.366 40.1023C76.5067 40.1023 75.7334 41.7343 75.7334 43.7957C75.8193 45.8571 76.5067 47.4891 77.366 47.4891Z" fill="#106b40"/>
<path fill-rule="evenodd" clip-rule="evenodd" d="M76.692 40.3288C76.8954 40.1339 77.1243 40.0186 77.3668 40.0186C77.8921 40.0186 78.3206 40.4698 78.6135 41.1419C78.9092 41.8208 79.0822 42.7561 79.0822 43.7947C79.0822 44.8348 78.8873 45.7702 78.5808 46.4486C78.4276 46.7876 78.245 47.066 78.0417 47.2607C77.8383 47.4556 77.6094 47.5709 77.3668 47.5709C77.1238 47.5709 76.8999 47.4552 76.703 47.2597C76.5065 47.0647 76.3321 46.7862 76.1846 46.4476C75.8895 45.77 75.6948 44.836 75.6515 43.7982L75.6514 43.7947H75.6514C75.6514 42.7547 75.8464 41.8193 76.1529 41.1409C76.306 40.8019 76.4887 40.5235 76.692 40.3288ZM75.817 43.793C75.8598 44.8159 76.0517 45.728 76.3364 46.3814C76.4789 46.7085 76.6429 46.9668 76.8196 47.1422C76.9959 47.3172 77.1802 47.4054 77.3668 47.4054C77.5539 47.4054 77.7439 47.3167 77.9271 47.1412C78.1105 46.9655 78.2823 46.707 78.4299 46.3804C78.7249 45.7275 78.9166 44.8161 78.9166 43.7947C78.9166 42.772 78.7459 41.8606 78.4617 41.2081C78.1745 40.5489 77.7867 40.1841 77.3668 40.1841C77.1797 40.1841 76.9897 40.2728 76.8065 40.4483C76.6231 40.624 76.4513 40.8825 76.3037 41.2091C76.0089 41.8617 75.8172 42.7723 75.817 43.793Z" fill="#106b40"/>
<path d="M53.4793 8.2357C53.4793 8.2357 39.5593 2.82444 30.1074 0.934788C29.334 0.763002 28.6466 1.36425 28.6466 2.13729C28.3889 9.00874 38.0985 21.2056 42.3948 20.2607" fill="white"/>
<path fill-rule="evenodd" clip-rule="evenodd" d="M29.9585 1.60488L29.9586 1.60473C29.6454 1.53518 29.3329 1.77028 29.3329 2.13729V2.15016L29.3324 2.16302C29.2736 3.73019 29.7866 5.66893 30.7079 7.71961C31.6238 9.75846 32.9179 11.8516 34.3557 13.7102C35.7956 15.5713 37.3604 17.1721 38.8062 18.2422C39.5293 18.7774 40.2042 19.1661 40.8034 19.3934C41.407 19.6224 41.8862 19.6699 42.2474 19.5905L42.3948 20.2607C38.0985 21.2056 28.3889 9.00874 28.6466 2.13729C28.6466 1.36425 29.334 0.763002 30.1074 0.934788C39.5593 2.82444 53.4793 8.2357 53.4793 8.2357L52.979 8.77842C52.8842 8.74207 52.7636 8.69599 52.6189 8.64101C52.2216 8.49003 51.6429 8.27201 50.9187 8.00439C49.4702 7.46909 47.4404 6.73566 45.1164 5.94343C40.4604 4.35629 34.6526 2.54333 29.9728 1.60775L29.9585 1.60488Z" fill="#106b40"/>
<g style="mix-blend-mode:multiply" opacity="0.2">
<path d="M64.6417 75.0623H64.6417V75.0594C64.6417 67.5048 69.729 61.3948 75.8199 61.3948C81.9116 61.3948 86.998 67.42 86.998 75.0594C86.998 82.6154 81.9955 88.7241 75.8199 88.7241C69.6421 88.7241 64.5568 82.6131 64.6417 75.0623Z" fill="#106b40"/>
<path d="M64.6417 75.0623H64.6417V75.0594C64.6417 67.5048 69.729 61.3948 75.8199 61.3948C81.9116 61.3948 86.998 67.42 86.998 75.0594C86.998 82.6154 81.9955 88.7241 75.8199 88.7241C69.6421 88.7241 64.5568 82.6131 64.6417 75.0623Z" stroke="#106b40" stroke-width="0.5"/>
</g>
<g style="mix-blend-mode:multiply" opacity="0.2">
<path fill-rule="evenodd" clip-rule="evenodd" d="M65.078 75.0672H65.0779C64.9949 82.4546 69.9575 88.2879 75.8199 88.2879C81.6765 88.2879 86.5618 82.4608 86.5618 75.0594C86.5618 67.5787 81.5959 61.831 75.8199 61.831C70.0462 61.831 65.078 67.6617 65.078 75.0594V75.0672ZM87.248 75.0594C87.248 82.7039 82.1784 88.9741 75.8199 88.9741C69.4613 88.9741 64.3058 82.7039 64.3917 75.0594C64.3917 67.415 69.5473 61.1448 75.8199 61.1448C82.0925 61.1448 87.248 67.3291 87.248 75.0594Z" fill="#106b40"/>
</g>
<path d="M91.5949 111.329C99.3283 111.329 105.608 109.008 105.608 104.198C105.608 102.506 105.608 98.5365 105.608 98.5365C99.0136 97.3554 83.1998 98.5362 78.2432 98.5362C78.2432 98.5362 77.7285 98.7878 77.7285 103.598C77.7285 108.408 83.9475 111.329 91.5949 111.329Z" fill="white"/>
<path fill-rule="evenodd" clip-rule="evenodd" d="M78.2432 98.5362C78.2432 98.5362 77.7285 98.7878 77.7285 103.598C77.7285 108.408 83.9475 111.329 91.5949 111.329C99.3283 111.329 105.608 109.008 105.608 104.198V98.5365C100.803 97.6759 91.1043 98.0692 84.2765 98.3461C81.7333 98.4492 79.5884 98.5362 78.2432 98.5362ZM104.922 99.1201V104.198C104.922 106.233 103.617 107.825 101.212 108.945C98.8004 110.068 95.408 110.643 91.5949 110.643C87.8465 110.643 84.499 109.925 82.1155 108.661C79.7326 107.397 78.4148 105.656 78.4148 103.598C78.4148 101.209 78.5433 99.9941 78.6596 99.3938C78.6725 99.327 78.685 99.2693 78.6968 99.2196C80.0575 99.2038 82.0376 99.1236 84.3303 99.0308C86.4739 98.944 88.8908 98.8461 91.3302 98.7794C96.4367 98.6398 101.649 98.636 104.922 99.1201Z" fill="#106b40"/>
<path d="M95.153 56.2497C94.4656 62.0904 91.8878 63.5506 88.2789 66.6428C83.553 70.6798 90.4271 77.6371 90.4271 77.6371C90.4271 77.6371 96.356 79.1832 102.886 76.1769C106.581 72.913 113.672 66.691 108.525 54.2719C106.463 50.4067 102.972 46.1143 97.9026 42.9363" fill="white"/>
<path fill-rule="evenodd" clip-rule="evenodd" d="M95.2918 55.5776C95.6372 55.6485 95.8766 55.9733 95.8346 56.3299C95.4784 59.3564 94.6216 61.3077 93.3481 62.9048C92.3905 64.1057 91.1919 65.1026 89.8859 66.1889C89.507 66.504 89.1191 66.8266 88.7254 67.1639L88.7247 67.1646C87.7006 68.0393 87.3241 69.0414 87.307 70.0751C87.2894 71.14 87.6553 72.2738 88.194 73.3456C88.7292 74.4107 89.4102 75.3656 89.9633 76.059C90.2387 76.4042 90.4796 76.6811 90.6505 76.8706C90.701 76.9265 90.7453 76.9747 90.7825 77.0148C90.7988 77.0183 90.8161 77.022 90.8345 77.0258C90.9974 77.0597 91.2416 77.106 91.5566 77.1529C92.187 77.2468 93.0992 77.3429 94.211 77.3481C96.4149 77.3584 99.3889 77.0116 102.508 75.5951C104.356 73.9624 106.894 71.6944 108.396 68.3746C109.9 65.0521 110.397 60.5997 107.904 54.5655C105.918 50.855 102.58 46.7387 97.7543 43.6546L97.9026 42.9363C102.972 46.1143 106.463 50.4067 108.525 54.2719C113.659 66.6604 106.616 72.8823 102.914 76.1527L102.886 76.1769C96.356 79.1832 90.4271 77.6371 90.4271 77.6371C90.4271 77.6371 83.553 70.6798 88.2789 66.6428C88.6941 66.2871 89.0956 65.9529 89.4822 65.6313C92.4559 63.1567 94.5447 61.4185 95.153 56.2497L95.2918 55.5776Z" fill="#106b40"/>
<path d="M97.4729 77.8953C90.8565 80.2144 90.4269 77.8953 90.4269 77.8953C90.4269 77.8953 83.9825 70.1649 87.7632 67.3305C89.0521 65.3549 89.7395 65.5267 90.8565 64.7537L97.4729 77.8953Z" fill="#106b40"/>
<path d="M51.5023 54.532C51.5023 54.532 58.7201 65.3545 68.6016 69.1338C74.7883 70.0786 59.8371 79.8705 59.8371 79.8705C59.8371 79.8705 49.6119 80.1281 39.043 71.8824" fill="white"/>
<path fill-rule="evenodd" clip-rule="evenodd" d="M51.3123 54.2464C51.4699 54.1413 51.683 54.1838 51.7881 54.3415L51.7891 54.343L51.7927 54.3483L51.8077 54.3705C51.8212 54.3904 51.8415 54.4203 51.8686 54.4596C51.9229 54.5383 52.0041 54.6548 52.1113 54.8049C52.3257 55.1049 52.6436 55.5389 53.0562 56.0719C53.8816 57.1382 55.0848 58.5997 56.5947 60.1784C59.6126 63.3337 63.8332 66.9333 68.6909 68.8003C68.6786 68.7984 68.6662 68.7964 68.6538 68.7945L68.602 69.1337L68.7245 68.8132C68.7133 68.8089 68.7021 68.8046 68.6909 68.8003C69.4785 68.9265 70.0507 69.209 70.3071 69.71C70.5671 70.2182 70.4296 70.8097 70.1487 71.3648C69.583 72.483 68.2443 73.8347 66.7643 75.1158C65.2706 76.4087 63.5854 77.6692 62.2765 78.6048C61.6214 79.073 61.0593 79.4608 60.6607 79.7316C60.4614 79.867 60.3029 79.9732 60.1941 80.0457L60.0693 80.1286L60.0368 80.15L60.0263 80.1569C60.0262 80.157 60.0255 80.1574 59.8375 79.8704C59.8289 79.5273 59.829 79.5273 59.829 79.5273L59.8237 79.5274L59.8037 79.5277C59.7877 79.5279 59.764 79.5281 59.733 79.5281L59.8136 79.4746C59.9208 79.4032 60.0776 79.2981 60.275 79.164C60.6699 78.8956 61.2275 78.511 61.8774 78.0465C63.1785 77.1166 64.8444 75.87 66.3152 74.5969C67.7996 73.312 69.0387 72.0386 69.5364 71.055C69.7872 70.5592 69.8026 70.2307 69.6962 70.0226C69.59 69.8152 69.2901 69.5859 68.5502 69.4729C68.526 69.4692 68.5023 69.463 68.4794 69.4542C63.4698 67.5382 59.1532 63.8462 56.0988 60.6527C54.569 59.0534 53.3502 57.573 52.5135 56.492C52.095 55.9514 51.7718 55.5103 51.5529 55.2038C51.4434 55.0505 51.3599 54.9308 51.3036 54.8491C51.2754 54.8083 51.2541 54.7769 51.2396 54.7556L51.2232 54.7312L51.2188 54.7248L51.2177 54.723C51.2176 54.7229 51.2172 54.7223 51.5027 54.5319L51.2177 54.723C51.1125 54.5654 51.1546 54.3516 51.3123 54.2464ZM59.8375 79.8704L59.8461 80.2134C59.91 80.2118 59.9729 80.1919 60.0263 80.1569L59.8375 79.8704ZM59.8375 79.8704C59.8461 80.2134 59.8464 80.2134 59.8461 80.2134L59.8432 80.2135L59.8364 80.2136L59.812 80.214C59.7908 80.2142 59.7598 80.2144 59.7195 80.2144C59.6389 80.2142 59.5206 80.2129 59.3671 80.2083C59.0602 80.199 58.6123 80.1765 58.0428 80.1234C56.904 80.0174 55.2783 79.7893 53.3208 79.3014C49.4056 78.3257 44.1612 76.3104 38.8323 72.1528C38.6829 72.0363 38.6562 71.8206 38.7728 71.6712C38.8894 71.5218 39.105 71.4952 39.2544 71.6118C44.4945 75.7 49.6471 77.6786 53.4867 78.6355C55.4067 79.114 56.9978 79.3368 58.1065 79.4401C58.6608 79.4918 59.0943 79.5135 59.3878 79.5223C59.5346 79.5268 59.6463 79.528 59.7206 79.5281C59.7249 79.5281 59.729 79.5281 59.733 79.5281L59.6911 79.5559L59.6598 79.5766L59.6501 79.5829L59.8375 79.8704Z" fill="#106b40"/>
<path d="M58.3418 79.973C62.0366 80.3839 62.5876 80.3017 66.0246 79.973C69.4617 79.6443 76.5935 70.4409 68.5165 69.044C67.6572 68.8796 65.0348 67.5359 63.9178 66.7964L58.3418 79.973Z" fill="#106b40"/>
<path d="M117.322 79.613L111.48 78.0669C109.417 82.3615 106.925 90.2637 109.503 100.914L115.002 100.743C118.955 100.657 122.306 97.5646 122.736 93.6135L123.337 88.1164C123.595 84.2512 121.189 80.6437 117.322 79.613Z" fill="#106b40"/>
<path d="M22.3115 87.2992C22.3115 87.2992 28.0591 107.802 59.3703 106.257C74.3215 102.65 73.4134 89.4049 67.9141 88.1165C64.3052 87.2576 62.3289 86.5704 62.3289 86.5704C62.3289 86.5704 55.2829 85.1102 50.7289 82.5334" fill="white"/>
<path fill-rule="evenodd" clip-rule="evenodd" d="M62.4424 86.2464C62.4424 86.2464 62.4424 86.2464 62.4424 86.2464L62.4472 86.2481L62.4636 86.2537L62.5306 86.2763C62.5905 86.2964 62.6805 86.3262 62.8001 86.3647C63.0391 86.4417 63.3963 86.5536 63.8661 86.6923C64.8057 86.9698 66.1959 87.3547 67.9938 87.7826C69.5014 88.1361 70.6628 89.3016 71.3185 90.8538C71.9748 92.4076 72.1382 94.3727 71.6453 96.3985C70.6553 100.468 67.029 104.763 59.4516 106.591C59.4307 106.596 59.4095 106.599 59.388 106.6C43.6483 107.376 34.2914 102.61 28.8674 97.6097C26.1596 95.1136 24.4407 92.5672 23.3979 90.642C22.8764 89.6794 22.5238 88.8716 22.3009 88.3023C22.1894 88.0176 22.1104 87.7924 22.0588 87.6372C22.0331 87.5596 22.0142 87.4995 22.0016 87.4582L21.9873 87.4105L21.9835 87.3974L21.9824 87.3937C21.9823 87.3933 21.9819 87.3919 22.3123 87.2992C22.6427 87.2066 22.6427 87.2065 22.6426 87.2064L22.6432 87.2085L22.6459 87.2177L22.6579 87.2578C22.669 87.294 22.6862 87.3488 22.7101 87.421C22.7581 87.5654 22.8331 87.7792 22.9399 88.0521C23.1537 88.5979 23.4947 89.3798 24.0013 90.3152C25.0147 92.186 26.6896 94.6687 29.3326 97.1051C34.6065 101.967 43.77 106.676 59.3219 105.916C66.674 104.133 70.061 100.008 70.9785 96.2363C71.4401 94.3389 71.2797 92.5257 70.6863 91.1208C70.0924 89.7148 69.0783 88.7416 67.8366 88.4507C66.0258 88.0197 64.6224 87.6313 63.6717 87.3505C63.1964 87.2101 62.8339 87.0966 62.5897 87.0179C62.4675 86.9785 62.375 86.9479 62.3126 86.927L62.2419 86.9031L62.2385 86.902L62.1774 86.8889C62.1238 86.8774 62.045 86.8603 61.9433 86.8376C61.7399 86.7922 61.4449 86.7247 61.0768 86.6356C60.3409 86.4574 59.3123 86.1929 58.1404 85.8474C55.8021 85.158 52.8722 84.14 50.5607 82.8322L50.8986 82.2349C53.1412 83.5038 56.0113 84.5043 58.3345 85.1892C59.4934 85.5308 60.5108 85.7924 61.2383 85.9686C61.602 86.0566 61.893 86.1232 62.0927 86.1678C62.1926 86.1901 62.2696 86.2068 62.3215 86.218L62.3801 86.2305L62.3948 86.2335L62.3993 86.2345" fill="#106b40"/>
<path d="M68.258 88.1159L62.4151 86.5698C60.3528 90.8645 55.3691 95.6745 57.9469 106.411L65.8521 105.896C69.8047 105.81 73.4136 103.663 73.8432 99.7115L74.101 95.8463C74.3588 91.8952 71.9529 89.0607 68.258 88.1159Z" fill="#106b40"/>
<path d="M91.8878 105.467C99.5756 105.467 105.808 102.544 105.808 98.9392C105.808 95.334 99.5756 92.4114 91.8878 92.4114C84.2 92.4114 77.9678 95.334 77.9678 98.9392C77.9678 102.544 84.2 105.467 91.8878 105.467Z" fill="#15c770"/>
<path fill-rule="evenodd" clip-rule="evenodd" d="M101.439 102.934C103.903 101.778 105.122 100.319 105.122 98.9392C105.122 97.5599 103.903 96.1 101.439 94.9447C99.0304 93.815 95.6541 93.0977 91.8878 93.0977C88.1215 93.0977 84.7452 93.815 82.3362 94.9447C79.8726 96.1 78.654 97.5599 78.654 98.9392C78.654 100.319 79.8726 101.778 82.3362 102.934C84.7452 104.064 88.1215 104.781 91.8878 104.781C95.6541 104.781 99.0304 104.064 101.439 102.934ZM105.808 98.9392C105.808 102.544 99.5756 105.467 91.8878 105.467C84.2 105.467 77.9678 102.544 77.9678 98.9392C77.9678 95.334 84.2 92.4114 91.8878 92.4114C99.5756 92.4114 105.808 95.334 105.808 98.9392Z" fill="#106b40"/>
</svg>
